<?xml version="1.0" standalone="no"?>
<!DOCTYPE svg PUBLIC "-//W3C//DTD SVG 20010904//EN"
 "http://www.w3.org/TR/2001/REC-SVG-20010904/DTD/svg10.dtd">
<svg version="1.0" xmlns="http://www.w3.org/2000/svg"
 width="260.000000pt" height="260.000000pt" viewBox="0 0 260.000000 260.000000"
 preserveAspectRatio="xMidYMid meet">
<metadata>
Created by potrace 1.11, written by Peter Selinger 2001-2013
</metadata>
<g transform="translate(0.000000,260.000000) scale(0.100000,-0.100000)"
fill="#000000" stroke="none">
<path d="M0 1300 l0 -1300 1300 0 1300 0 0 1300 0 1300 -1300 0 -1300 0 0
-1300z m2185 991 c22 -10 52 -31 67 -47 60 -65 58 -25 58 -946 0 -799 -1 -845
-19 -883 -10 -22 -31 -52 -47 -67 -65 -60 -25 -58 -944 -58 -919 0 -879 -2
-944 58 -16 15 -37 45 -47 67 -18 38 -19 84 -19 883 0 921 -2 881 58 946 15
16 45 37 67 47 38 18 84 19 885 19 801 0 847 -1 885 -19z"/>
<path d="M1473 1438 l-353 -352 -173 172 c-95 95 -179 172 -186 172 -26 0 -68
-30 -123 -88 -42 -44 -58 -68 -58 -89 0 -23 43 -70 253 -280 234 -234 255
-253 287 -253 33 0 63 27 468 433 371 371 432 437 432 462 0 38 -133 175 -170
175 -19 0 -110 -86 -377 -352z"/>
</g>
</svg>
